<svg xmlns="http://www.w3.org/2000/svg" width="600" height="600" viewBox="0 0 600 600" version="1.1">
	<path d="M 273.129 47.899 C 272.375 48.377, 266.645 53.613, 260.394 59.535 C 247.839 71.431, 245 76.320, 245 86.038 C 245 88.767, 244.727 91, 244.394 91 C 244.061 91, 242.466 89.887, 240.849 88.526 C 233.426 82.280, 216.177 80.118, 204 83.907 C 197.402 85.960, 177.772 96.986, 173.396 101.098 C 168.925 105.298, 170.881 110.402, 178.436 114.254 L 181.373 115.751 169.752 121.275 C 116.403 146.633, 75.194 184.586, 46.266 235 C 31.979 259.900, 24.561 279.247, 16.937 311.500 C 9.669 342.246, 9.262 387.244, 15.938 422 C 23.063 459.088, 35.649 488.179, 58.500 520.373 C 62.350 525.797, 66.502 531.645, 67.726 533.367 C 68.950 535.090, 72.550 539.558, 75.726 543.296 L 81.500 550.091 173 550.663 C 286.007 551.368, 302.372 551.362, 419.962 550.569 C 471.916 550.218, 514.666 549.578, 514.962 549.146 C 515.258 548.715, 518.686 544.568, 522.580 539.931 C 551.234 505.812, 573.963 457.003, 580.061 416.500 C 583.973 390.514, 584.979 366.183, 582.983 345.856 C 577.999 295.112, 563.004 253.930, 534.244 212 C 519.414 190.379, 498.626 168.671, 477.648 152.899 C 459.322 139.122, 432.525 124.452, 409.118 115.384 C 396.744 110.590, 396.337 110.614, 393.501 116.299 C 391.453 120.404, 391.867 120.729, 406.500 126.512 C 462.625 148.692, 503.695 183.010, 534.854 233.766 C 559.931 274.614, 572.881 324.221, 571.722 375 C 571.306 393.221, 568.796 416.417, 567.036 418.308 C 565.915 419.512, 547.663 402.850, 526.500 381.304 C 520.450 375.144, 513.541 369.112, 511.147 367.898 L 506.793 365.690 501.647 367.956 C 498.816 369.203, 493.575 371.063, 490 372.090 L 483.500 373.958 481 371.133 C 479.625 369.579, 475.695 364.976, 472.267 360.904 C 463.115 350.033, 454.354 341.026, 447 334.926 C 443.425 331.961, 438.700 327.574, 436.500 325.177 C 430.654 318.809, 423.707 313.999, 420.366 314.007 C 416.224 314.016, 413.853 315.923, 398.612 331.500 L 384.914 345.500 385.575 341 C 386.248 336.417, 387.828 329.952, 392.421 313 C 396.166 299.177, 395.722 295.995, 390.050 296.004 C 387.488 296.007, 384.700 297.525, 377.743 302.704 C 375.677 304.242, 368.252 309.530, 361.243 314.456 C 347.693 323.979, 333.098 337.579, 328.463 345 C 323.049 353.670, 317.169 366.603, 313.352 378.241 C 311.233 384.698, 309.231 389.986, 308.903 389.991 C 307.922 390.006, 307.009 368.942, 307.005 346.200 C 306.999 319.074, 307.008 319.052, 323.611 307.994 C 337.494 298.748, 341.789 293.737, 354.573 271.875 C 358.175 265.715, 363.068 258.161, 365.445 255.088 C 370.851 248.100, 372.156 245.570, 371.386 243.564 C 370.045 240.069, 366.340 240.676, 356.298 246.038 C 341.690 253.837, 336.254 257.643, 328.250 265.680 C 324.262 269.684, 321 272.464, 321 271.857 C 321 271.250, 322.930 267.546, 325.289 263.627 C 334.350 248.568, 340.341 232.594, 343.525 215 C 347.639 192.267, 350.149 180.612, 351.491 178.018 C 352.510 176.046, 353.984 175.038, 356.549 174.557 C 362.387 173.462, 380.929 175.050, 387.202 177.183 C 396.471 180.335, 399.423 176.822, 396.601 166 C 395.812 162.975, 394.672 156.900, 394.067 152.500 C 392.006 137.492, 386.938 130.930, 374.415 127.055 L 368.689 125.284 374.928 118.577 C 380.997 112.054, 386 103.138, 386 98.847 C 386 94.400, 391.121 85.186, 395.030 82.599 C 401.128 78.563, 401.205 73.701, 395.220 70.621 C 388.367 67.094, 358.554 65.678, 348.350 68.395 C 340.512 70.482, 333.161 74.893, 326.945 81.241 L 321.323 86.982 319.721 81.241 C 316.530 69.803, 309.906 62.873, 297.500 57.992 C 294.200 56.693, 289.767 54.476, 287.649 53.065 C 278.705 47.109, 275.934 46.122, 273.129 47.899 M 185 117.367 C 185 117.687, 186.379 118.662, 188.064 119.533 C 189.749 120.404, 190.986 121.486, 190.814 121.936 C 190.641 122.386, 183.975 126.095, 176 130.178 C 140.489 148.359, 119.577 163.334, 96.485 187.123 C 77.159 207.030, 62.698 227.489, 49.953 252.955 C 34.813 283.204, 27.140 310.168, 23.929 344.399 C 22.013 364.819, 24.149 413.285, 27.104 416.443 C 28.485 417.920, 30.059 416.660, 65.500 385.720 C 87.166 366.805, 90.733 363.281, 99.445 352.186 C 106.717 342.924, 108.027 342.307, 116.882 343.978 C 120.667 344.692, 125.054 344.965, 126.632 344.585 C 130.131 343.741, 143.241 330.552, 154.866 316.179 C 163.668 305.296, 167.864 301.681, 176.733 297.342 L 182.168 294.683 186.334 296.853 C 188.625 298.047, 193.200 301.321, 196.500 304.129 C 199.800 306.938, 206.100 311.619, 210.500 314.532 C 215.319 317.723, 220.038 321.856, 222.367 324.927 C 224.494 327.731, 228.447 332.014, 231.150 334.445 C 235.347 338.218, 236.901 338.965, 241.783 339.553 C 250.023 340.545, 253.346 342.212, 260.309 348.843 C 263.714 352.085, 269.772 357.458, 273.770 360.783 C 277.769 364.108, 283.131 369.154, 285.685 371.995 C 288.900 375.571, 290.527 376.752, 290.969 375.831 C 291.321 375.099, 291.283 364.689, 290.885 352.698 C 290.221 332.686, 289.970 330.509, 287.831 326.198 C 285.709 321.920, 284.678 321.097, 276.315 317 C 260.777 309.387, 255.727 304.527, 242.025 284 C 234.799 273.174, 229.719 266.674, 222.879 259.500 C 217.444 253.800, 215.884 250.495, 217.095 247.250 C 218.656 243.071, 222.993 244.376, 246.275 256.029 C 257.551 261.673, 266.290 268.076, 271.661 274.631 C 273.731 277.158, 275.597 278.709, 275.807 278.079 C 276.017 277.448, 275.756 276.385, 275.227 275.716 C 273.067 272.985, 259.882 246.924, 257.632 240.937 C 253.655 230.358, 247 199.741, 247 192.029 C 247 187.117, 246.266 187.028, 238.500 191 C 227.516 196.617, 225.160 194.819, 223.773 179.766 C 222.357 164.387, 222.993 158.882, 226.815 153.461 C 228.567 150.975, 230 148.597, 230 148.175 C 230 147.754, 225.613 145.213, 220.250 142.529 C 211.821 138.310, 209.189 136.318, 200.819 127.824 C 195.495 122.421, 190.469 118, 189.651 118 C 188.833 118, 187.452 117.727, 186.582 117.393 C 185.712 117.059, 185 117.048, 185 117.367 M 291.200 135.200 C 289.328 137.072, 289.729 142.695, 291.841 144.193 C 292.854 144.912, 294.282 146.625, 295.014 148 L 296.346 150.500 297.621 147.385 C 298.545 145.126, 299.751 144.100, 302.014 143.647 C 305.477 142.955, 305.177 140.716, 301.686 141.202 C 298.837 141.599, 298.172 138.450, 300.952 137.723 C 302.078 137.428, 303 136.470, 303 135.594 C 303 133.711, 301.862 133.538, 300.227 135.173 C 299.330 136.070, 298.449 136.070, 296.480 135.173 C 293.262 133.707, 292.690 133.710, 291.200 135.200 M 293 138.918 C 293 139.423, 293.278 140.560, 293.617 141.444 C 294.094 142.688, 294.546 142.792, 295.617 141.903 C 297.650 140.215, 297.300 138, 295 138 C 293.900 138, 293 138.413, 293 138.918" stroke="none" fill="#000000" fill-rule="evenodd"/>
</svg>