<svg xmlns="http://www.w3.org/2000/svg" viewBox="0 0 200 200">
  <g fill="#000">
    <!-- Main Bell Body -->
    <path d="M 100 30 
             C 80 80, 70 120, 80 150 
             L 120 150 
             C 130 120, 120 80, 100 30 Z" />
             
    <!-- Top Center Petal -->
    <path d="M 85 45 
             C 90 20, 95 10, 100 10 
             C 105 10, 110 20, 115 45 Z" />

    <!-- Left Outer Petal -->
    <path d="M 85 60 
             C 60 50, 30 45, 20 60
             C 30 80, 50 75, 75 90 Z" />

    <!-- Right Outer Petal -->
    <path d="M 115 60 
             C 140 50, 170 45, 180 60
             C 170 80, 150 75, 125 90 Z" />

    <!-- Left Inner Petal -->
    <path d="M 90 40 
             C 70 30, 45 35, 40 50
             C 55 60, 70 65, 80 75 Z" />

    <!-- Right Inner Petal -->
    <path d="M 110 40 
             C 130 30, 155 35, 160 50
             C 145 60, 130 65, 120 75 Z" />

    <!-- Base / Calyx Left -->
    <path d="M 80 140
             C 60 150, 30 155, 30 170
             C 50 165, 70 175, 90 195
             L 95 150 Z" />

    <!-- Base / Calyx Right -->
    <path d="M 120 140
             C 140 150, 170 155, 170 170
             C 150 165, 130 175, 110 195
             L 105 150 Z" />

    <!-- Center lower sepal / stem -->
    <path d="M 85 145
             L 115 145
             L 100 190 Z" />
  </g>
</svg>
