<svg xmlns="http://www.w3.org/2000/svg" width="196" height="222" viewBox="0 0 196 222" version="1.1">
	<path d="M 194 50.122 C 194 106.369, 194.633 102.845, 186.564 91.537 C 181.081 83.854, 176.097 79.399, 170.112 76.834 C 164.968 74.629, 154.238 73.036, 151.373 74.052 C 149.735 74.632, 149.437 74.074, 149 69.608 L 148.500 64.500 138.381 64.500 L 128.262 64.500 129.631 60.624 C 132.506 52.484, 130.416 42.385, 123.498 30.997 C 119.384 24.225, 107.570 11.704, 105.741 12.178 C 103.928 12.648, 90.528 20.015, 85.145 23.500 C 79.476 27.171, 74.277 35.431, 73.380 42.190 C 73.029 44.836, 72.553 47, 72.322 47 C 72.090 47, 70.565 46.309, 68.932 45.465 C 66.190 44.047, 65.917 44.066, 65.347 45.715 C 65.008 46.697, 63.891 49.470, 62.865 51.877 C 61.839 54.285, 61 57.106, 61 58.147 C 61 59.960, 60.820 59.948, 56.750 57.862 C 51.010 54.919, 39.188 54.680, 33.698 57.396 C 30.342 59.057, 16.962 70.254, 16.217 72.026 C 16.061 72.397, 17.512 75.046, 19.442 77.914 C 21.372 80.782, 24.402 85.851, 26.176 89.179 C 27.950 92.507, 31.371 97.421, 33.779 100.099 C 39.204 106.133, 50.495 111.983, 58.440 112.877 L 63.983 113.500 62.503 116.343 C 60.383 120.414, 58.006 128.844, 57.966 132.432 C 57.937 135.069, 57.374 134.387, 53.958 127.581 C 47.087 113.893, 39.493 105.480, 28.837 99.750 C 23.604 96.936, 17.650 96.140, 16.442 98.094 C 15.607 99.445, 24.588 112.634, 34.083 124 C 45.966 138.225, 50.847 146.378, 54.434 158 C 55.368 161.025, 56.829 165.150, 57.681 167.167 C 59.149 170.644, 59.088 171.286, 56.521 179.524 C 53.746 188.427, 53.959 190.542, 57.561 189.844 C 58.536 189.655, 59.730 188.150, 60.214 186.500 C 61.891 180.778, 64.115 177.393, 67.299 175.714 C 72.941 172.738, 79.122 171, 84.061 171 C 86.706 171, 90.026 170.560, 91.440 170.023 C 93.688 169.168, 94.788 169.638, 100.222 173.773 C 103.639 176.373, 108.848 180.890, 111.798 183.812 C 117.086 189.050, 117.197 189.101, 119.671 187.480 C 125.616 183.585, 135.772 172.285, 138.529 166.500 C 142.428 158.315, 143.032 149.122, 140.105 142.505 C 138.947 139.888, 138 137.673, 138 137.583 C 138 137.494, 139.012 137.413, 140.250 137.403 C 141.488 137.392, 144.699 137.298, 147.386 137.192 L 152.272 137 151.649 132.750 C 151.307 130.412, 150.774 127.600, 150.465 126.500 C 149.937 124.619, 150.397 124.496, 158.202 124.436 C 170.746 124.339, 176.452 121.017, 186.891 107.733 C 189.801 104.030, 192.591 101, 193.091 101 C 193.626 101, 194 125.885, 194 161.500 C 194 201.167, 194.344 222, 195 222 C 195.661 222, 196 184.333, 196 111 C 196 37.667, 195.661 0, 195 0 C 194.347 0, 194 17.374, 194 50.122 M 103.158 68.815 C 102.052 70.787, 101.625 70.935, 100.268 69.815 C 98.951 68.728, 98.598 68.729, 98.232 69.817 C 97.988 70.542, 96.744 72.342, 95.468 73.817 C 93.667 75.899, 93.040 76.164, 92.669 75 C 92.407 74.175, 91.938 72.713, 91.627 71.750 C 90.729 68.967, 86.529 69.544, 85.116 72.644 L 83.912 75.288 86.421 73.644 C 89.608 71.555, 90 71.581, 90 73.878 C 90 74.910, 90.646 76.291, 91.436 76.947 C 93.199 78.410, 96.425 76.943, 98.027 73.949 C 98.617 72.846, 99.543 72.217, 100.083 72.552 C 100.624 72.886, 102.626 73.353, 104.533 73.589 C 107.148 73.913, 108 73.648, 108 72.510 C 108 71.679, 107.356 71, 106.570 71 C 105.783 71, 104.985 69.987, 104.798 68.750 L 104.456 66.500 103.158 68.815 M 110.032 75.628 C 110.014 76.798, 110.675 78.315, 111.500 79 C 113.547 80.699, 113.570 78.136, 111.532 75.441 C 110.092 73.538, 110.063 73.542, 110.032 75.628 M 77.104 78.671 C 76.090 80.897, 76.184 80.994, 78.764 80.377 C 83.765 79.182, 84.597 77.538, 80.590 76.772 C 78.775 76.425, 77.913 76.895, 77.104 78.671 M 117.208 79.039 C 116.508 80.160, 115.499 80.809, 114.967 80.480 C 113.407 79.516, 113.858 81.715, 115.571 83.429 C 116.436 84.293, 118.461 85, 120.071 85 C 121.808 85, 123 85.529, 123 86.301 C 123 88.596, 125.459 92.984, 126.750 92.992 C 127.451 92.997, 128 94.231, 128 95.800 C 128 98.931, 129.592 101, 132 101 C 134.672 101, 136.089 103.054, 134.507 104.636 C 133.757 105.386, 132.769 106, 132.312 106 C 130.875 106, 129.064 109.748, 128.353 114.193 C 127.724 118.125, 127.800 118.343, 129.275 116.868 C 130.189 115.953, 130.653 114.388, 130.351 113.233 C 129.985 111.834, 130.933 109.973, 133.410 107.231 C 135.385 105.046, 137 102.787, 137 102.212 C 137 101.637, 137.563 100.940, 138.250 100.662 C 138.938 100.385, 138.150 100.115, 136.500 100.064 C 132.421 99.935, 131.376 99.073, 130.520 95.129 C 130.093 93.162, 129.050 91.564, 128.016 91.294 C 127.041 91.039, 125.722 89.685, 125.084 88.286 C 124.146 86.225, 124.218 85.417, 125.462 84.042 C 127.843 81.411, 127.290 80.799, 124.050 82.474 C 119.087 85.041, 117.650 84.547, 118.306 80.500 C 118.969 76.419, 118.901 76.328, 117.208 79.039 M 97.006 88.759 C 94.377 90.077, 93.101 91.673, 91.755 95.328 C 89.989 100.124, 89.992 100.174, 92.239 102.897 C 94.691 105.870, 101.373 109.197, 103.303 108.406 C 105.082 107.678, 110.636 99.854, 111.294 97.149 C 112.088 93.883, 110.235 90.324, 107.120 89.135 C 101.809 87.106, 100.405 87.054, 97.006 88.759 M 70.781 88.643 C 70.523 89.114, 70.363 90.850, 70.426 92.500 C 70.488 94.150, 69.928 95.974, 69.179 96.553 C 68.046 97.430, 68.085 97.825, 69.410 98.925 C 70.284 99.651, 71.020 99.852, 71.044 99.372 C 71.068 98.893, 71.451 96.619, 71.896 94.321 C 72.639 90.483, 71.883 86.630, 70.781 88.643 M 95.590 92.504 C 92.863 95.032, 92.824 97.389, 95.526 96.352 C 96.331 96.043, 96.727 95.368, 96.408 94.851 C 95.470 93.333, 98.127 90.905, 100.057 91.518 C 101.033 91.828, 102.121 91.613, 102.475 91.041 C 103.803 88.891, 98.204 90.082, 95.590 92.504 M 104.241 100.986 C 102.742 103.386, 102.645 105, 104 105 C 104.550 105, 105 104.311, 105 103.469 C 105 102.626, 105.675 101.678, 106.500 101.362 C 108.321 100.663, 108.490 99, 106.741 99 C 106.048 99, 104.923 99.894, 104.241 100.986 M 72.915 109 C 72.565 110.897, 73.369 112.438, 76.251 115.392 C 78.340 117.533, 80.274 119.060, 80.548 118.785 C 81.378 117.955, 79.869 115, 78.615 115 C 76.932 115, 74.227 111.558, 73.769 108.832 L 73.377 106.500 72.915 109 M 123.206 123.004 L 119.913 126.840 123.482 125.744 C 125.819 125.027, 126.620 124.383, 125.803 123.878 C 124.877 123.306, 124.999 122.937, 126.278 122.447 C 127.939 121.809, 128.777 118.912, 127.250 119.085 C 126.838 119.131, 125.018 120.895, 123.206 123.004 M 117.038 129.454 C 115.957 130.757, 116.050 130.984, 117.628 130.900 C 120.397 130.753, 124.830 129.219, 122.832 129.100 C 121.914 129.045, 120.524 128.755, 119.742 128.454 C 118.960 128.154, 117.743 128.604, 117.038 129.454 M 99 131.019 C 99 131.559, 100.763 132, 102.918 132 C 105.073 132, 107.661 132.291, 108.668 132.647 C 109.904 133.084, 110.175 132.963, 109.500 132.277 C 108.118 130.870, 99 129.778, 99 131.019 M 58.503 145.047 C 58.924 146.396, 59.932 148.400, 60.743 149.500 C 62.139 151.395, 62.181 151.349, 61.559 148.629 C 61.197 147.050, 60.189 145.046, 59.319 144.176 C 57.875 142.732, 57.804 142.809, 58.503 145.047 M 85.991 157.511 C 85.311 158.330, 83.910 159, 82.878 159 C 81.845 159, 81 159.459, 81 160.019 C 81 160.591, 79.794 160.808, 78.250 160.513 C 76.737 160.224, 76.081 160.259, 76.792 160.591 C 77.783 161.054, 77.813 161.520, 76.919 162.597 C 75.414 164.412, 76.980 164.403, 79.579 162.583 C 80.692 161.803, 83.267 160.853, 85.301 160.471 C 87.364 160.084, 89 159.189, 89 158.448 C 89 156.377, 87.356 155.866, 85.991 157.511" stroke="none" fill="#000000" fill-rule="evenodd"/>
</svg>