<svg xmlns="http://www.w3.org/2000/svg" viewBox="0 0 200 200">
  <g fill="#000">
    <!-- Solid Core -->
    <circle cx="100" cy="100" r="30" />

    <!-- Top Petal -->
    <path d="M 70 90 Q 70 20, 95 10 Q 120 40, 110 90 Z" />

    <!-- Top Right Petal -->
    <path d="M 100 80 Q 160 20, 185 55 Q 170 100, 110 100 Z" />

    <!-- Bottom Right Petal -->
    <path d="M 110 90 Q 180 100, 160 165 Q 120 180, 90 120 Z" />

    <!-- Left Petal -->
    <path d="M 90 80 Q 20 40, 15 85 Q 25 130, 90 110 Z" />

    <!-- Bottom Left Bud -->
    <path d="M 90 110 Q 40 110, 50 155 Q 80 180, 100 130 Z" />

    <!-- Bottom Left Leaf -->
    <path d="M 70 130 Q 10 150, 25 195 Q 50 180, 80 140 Z" />

    <!-- Stem -->
    <path d="M 85 140 Q 70 180, 75 200 L 85 200 Q 80 180, 95 140 Z" />
  </g>
</svg>
